FILE "Dragonbeat - Legend of Pinball (Japan).bin" BINARY
  TRACK 01 MODE2/2352
    INDEX 01 00:00:00
  TRACK 02 AUDIO
    INDEX 00 49:05:11
    INDEX 01 49:07:11
  TRACK 03 AUDIO
    INDEX 00 53:26:18
    INDEX 01 53:28:18
  TRACK 04 AUDIO
    INDEX 00 57:45:13
    INDEX 01 57:47:13
  TRACK 05 AUDIO
    INDEX 00 61:58:31
    INDEX 01 62:00:31
  TRACK 06 AUDIO
    INDEX 00 65:44:69
    INDEX 01 65:46:69
REM LEADOUT 68:51:10
